<?xml version="1.0" standalone="no"?><!DOCTYPE svg PUBLIC "-//W3C//DTD SVG 1.1//EN" "http://www.w3.org/Graphics/SVG/1.1/DTD/svg11.dtd"><svg t="1532952800672" class="icon" style="" viewBox="0 0 1024 1024" version="1.1" xmlns="http://www.w3.org/2000/svg" p-id="2323" xmlns:xlink="http://www.w3.org/1999/xlink" width="200" height="200"><defs><style type="text/css"></style></defs><path d="M512 512m-512 0a512 512 0 1 0 1024 0 512 512 0 1 0-1024 0Z" fill="#555D61" p-id="2324"></path><path d="M467.626667 768l-3.413334-286.72c0-23.893333 17.066667-40.96 37.546667-40.96h3.413333c75.093333 0 136.533333 61.44 136.533334 136.533333 0 23.893333-17.066667 40.96-40.96 40.96s-40.96-17.066667-40.96-40.96c0-13.653333-6.826667-27.306667-13.653334-37.546666l3.413334 276.48V826.026667c0 34.133333-40.96 61.44-92.16 61.44-51.2 0-92.16-23.893333-95.573334-58.026667 0-34.133333 40.96-61.44 92.16-61.44h13.653334z m303.786666 13.653333c-6.826667 6.826667-20.48 6.826667-27.306666 0-6.826667-6.826667-6.826667-20.48 0-27.306666 126.293333-126.293333 126.293333-334.506667 0-464.213334S409.6 160.426667 279.893333 290.133333s-126.293333 334.506667 0 464.213334c6.826667 6.826667 6.826667 20.48 0 27.306666-6.826667 6.826667-20.48 6.826667-27.306666 0-143.36-143.36-143.36-378.88 0-522.24s378.88-143.36 522.24 0 143.36 378.88-3.413334 522.24z m-81.92-81.92c-17.066667 17.066667-40.96 17.066667-58.026666 0s-17.066667-40.96 0-58.026666c68.266667-68.266667 68.266667-174.08 0-242.346667s-174.08-68.266667-242.346667 0-68.266667 174.08 0 242.346667c17.066667 17.066667 17.066667 40.96 0 58.026666s-40.96 17.066667-58.026667 0c-98.986667-98.986667-98.986667-259.413333 0-358.4s259.413333-98.986667 358.4 0 98.986667 259.413333 0 358.4z" fill="#FFFFFF" p-id="2325"></path></svg>