<svg width="800" height="800" xmlns="http://www.w3.org/2000/svg" class="icon">
 <defs>
  <style type="text/css"/>
 </defs>
 <g>
  <title>background</title>
  <rect fill="none" id="canvas_background" height="802" width="802" y="-1" x="-1"/>
 </g>
 <g>
  <title>Layer 1</title>
  <ellipse ry="103.448279" rx="103.448279" id="svg_3" cy="567.23692" cx="481.137774" stroke-opacity="null" stroke-width="null" stroke="null" fill="#619E73"/>
  <path transform="rotate(-30 346.628692626953,335.62936401367176) " stroke="null" id="svg_1" fill="#8CD79F" d="m390.156732,127.495632c99.90269,19.63901 175.1372,105.36065 175.1372,208.13374l0,201.698l65.59958,0l0,53.07842l-568.52967,0l1.49315,-52.21635l64.10643,-0.86207l0,-201.698c0,-102.77309 75.23452,-188.49473 175.1372,-208.13374c-0.13666,-1.39331 -0.20499,-2.78662 -0.20499,-4.17993c0,-23.42085 19.61154,-42.46273 43.73305,-42.46273s43.73305,19.04188 43.73305,42.46273c0,1.39331 -0.06833,2.85296 -0.205,4.17993z"/>
 </g>
</svg>