<?xml version="1.0" standalone="no"?><!DOCTYPE svg PUBLIC "-//W3C//DTD SVG 1.1//EN" "http://www.w3.org/Graphics/SVG/1.1/DTD/svg11.dtd"><svg t="1532998017912" class="icon" style="" viewBox="0 0 1024 1024" version="1.1" xmlns="http://www.w3.org/2000/svg" p-id="3608" xmlns:xlink="http://www.w3.org/1999/xlink" width="200" height="200"><defs><style type="text/css"></style></defs><path d="M817.62610231 11.21506208H140.09353818c-40.50466428 0-73.64484404 33.14017975-73.64484404 73.64484275v854.28019034c0 40.50466428 33.14017975 73.64484404 73.64484404 73.64484275h681.21480576c40.50466428 0 73.64484404-33.14017975 73.64484404-73.64484275V84.85990483c-3.68224161-40.50466428-36.82242138-73.64484404-77.32708567-73.64484275zM427.3084298 581.96260112c-3.68224161 3.68224161-11.04672615 7.36448454-18.41121069 7.36448454H213.73838222c-14.72896907 0-25.77569522-11.04672615-25.77569522-29.45793684s11.04672615-29.45793813 25.77569522-29.45793813h195.15883689c7.36448454 0 14.72896907 3.68224161 18.41121069 7.36448453 3.68224161 11.04672615 7.36448454 18.41121069 7.36448454 22.0934536 0 7.36448454-3.68224161 18.41121069-7.36448454 22.0934523z m114.14950833-169.38314037H213.73838222c-14.72896907 0-25.77569522-11.04672615-25.77569522-29.45793814s11.04672615-29.45793813 25.77569522-29.45793684h327.71955591c14.72896907 0 25.77569522 11.04672615 25.77569522 29.45793684 0 11.04672615-11.04672615 29.45793813-25.77569522 29.45793814z m220.93453083-198.84107853c-3.68224161 3.68224161-11.04672615 7.36448454-18.41121069 7.36448454H213.73838222c-14.72896907 0-25.77569522-11.04672615-25.77569522-29.45793813s11.04672615-29.45793813 25.77569522-29.45793684h530.24287605c7.36448454 0 14.72896907 3.68224161 18.41121069 7.36448453 3.68224161 3.68224161 7.36448454 14.72896907 7.36448453 22.09345231s-3.68224161 18.41121069-7.36448453 22.09345359z" fill="#C1C0F7" p-id="3609"></path><path d="M607.73829764 552.50466428c-25.77569522-77.32708566-11.04672615-165.70089876 51.55139043-228.29901664 66.2803595-66.2803595 169.38314038-81.00932858 254.07471059-40.5046643l-139.92520227 139.92520356c-22.0934536 22.0934536-22.0934536 55.23363335 0 77.32708695l14.72896779 14.72896776c22.0934536 22.0934536 55.23363335 22.0934536 77.32708696 0l139.92520354-136.24296063c40.50466428 81.00932858 29.45793813 184.11210945-40.50466429 254.07471188-62.59811789 62.59811789-150.97192971 77.32708566-228.29901665 51.55139044-3.68224161 7.36448454-7.36448454 14.72896907-14.72896906 25.77569522l-235.6634999 235.66349989c-33.14017975 33.14017975-84.6915702 33.14017975-114.14950833 0l-22.09345359-22.09345231c-33.14017975-33.14017975-33.14017975-84.6915702 0-114.14950832l235.66350118-235.66349989c3.68224161-11.04672615 11.04672615-14.72896907 22.0934536-22.09345361z m-195.15883689 331.40179754c14.72896907 14.72896907 36.82242138 14.72896907 51.55139043 0 14.72896907-14.72896907 14.72896907-36.82242138 0-51.55139045s-36.82242138-14.72896907-51.55139043 0c-14.72896907 14.72896907-18.41121069 36.82242138 0 51.55139045z" fill="#8482EF" p-id="3610"></path></svg>