<?xml version="1.0" standalone="no"?><!DOCTYPE svg PUBLIC "-//W3C//DTD SVG 1.1//EN" "http://www.w3.org/Graphics/SVG/1.1/DTD/svg11.dtd"><svg t="1532998232360" class="icon" style="" viewBox="0 0 1254 1024" version="1.1" xmlns="http://www.w3.org/2000/svg" p-id="6070" xmlns:xlink="http://www.w3.org/1999/xlink" width="244.921875" height="200"><defs><style type="text/css"></style></defs><path d="M742.712004 0.052068a509.621961 509.621961 0 0 0-312.580169 106.530654h-141.62433a42.504655 42.504655 0 0 0-42.348452 42.383163 42.504655 42.504655 0 0 0 42.383163 42.383164h132.373624a42.522011 42.522011 0 0 1 42.400519 42.383163 42.504655 42.504655 0 0 1-42.348452 42.383164H152.43707a42.383163 42.383163 0 0 0 0 84.766327h101.011471a511.999722 511.999722 0 0 0-22.684192 151.118019c0 282.745338 229.202316 511.999722 511.999723 511.999723a509.500469 509.500469 0 0 0 282.189948-84.783683h-76.643755a42.504655 42.504655 0 0 1-42.383163-42.383164 42.504655 42.504655 0 0 1 42.383163-42.383163h171.42445c1.145491 0 2.273626 0 3.471184 0.156203a510.038503 510.038503 0 0 0 131.523183-342.571204C1254.659658 229.254384 1025.439986 0.052068 742.712004 0.052068z" fill="#71BEFF" p-id="6071"></path><path d="M42.348452 318.498539m-42.348452 0a42.348452 42.348452 0 1 0 84.696903 0 42.348452 42.348452 0 1 0-84.696903 0Z" fill="#71BEFF" p-id="6072"></path><path d="M1203.477042 939.18105H948.101994a42.383163 42.383163 0 0 1-42.417875-42.383164 42.383163 42.383163 0 0 1 42.383163-42.383163h175.190685a509.969079 509.969079 0 0 0 131.401691-342.415001c0-282.745338-229.202316-511.999722-511.999722-511.999722v1023.999445h460.817106a42.383163 42.383163 0 0 0 42.383164-42.417876 42.383163 42.383163 0 0 0-42.383164-42.400519z" fill="#1B8CFF" p-id="6073"></path><path d="M969.519203 631.894437a54.723225 54.723225 0 1 0-54.723225 54.723224 54.705869 54.705869 0 0 0 54.723225-54.723224z m-21.347785 18.570837h-63.557389a6.942369 6.942369 0 0 1-6.942369-6.942369v-33.427507a6.942369 6.942369 0 0 1 6.942369-6.942369h63.557389a6.942369 6.942369 0 0 1 6.942369 6.942369v33.427507a6.942369 6.942369 0 0 1-6.942369 6.942369z" fill="#FFFFFF" p-id="6074"></path><path d="M986.85777 349.895403h-42.018689v-20.393209a20.21965 20.21965 0 1 0-40.4393 0v20.393209h-336.184225v-20.393209a20.21965 20.21965 0 0 0-40.4393 0v20.393209h-31.518356a20.827107 20.827107 0 0 0-20.827107 20.827108v318.029929a20.827107 20.827107 0 0 0 20.827107 20.827107H986.85777a20.827107 20.827107 0 0 0 20.827107-20.827107V370.722511a20.827107 20.827107 0 0 0-20.827107-20.827108z m-31.743983 89.799545v33.358084a6.942369 6.942369 0 0 1-6.942369 6.942369h-63.557389a6.942369 6.942369 0 0 1-6.942369-6.942369v-33.358084a6.942369 6.942369 0 0 1 6.942369-6.942369h63.557389a6.942369 6.942369 0 0 1 6.942369 6.942369z m0 85.200225v33.358084a6.942369 6.942369 0 0 1-6.942369 6.942369h-63.557389a6.942369 6.942369 0 0 1-6.942369-6.942369V524.895173a6.942369 6.942369 0 0 1 6.942369-6.942369h63.557389a6.942369 6.942369 0 0 1 6.942369 6.942369zM916.392723 328.478195a8.244063 8.244063 0 0 1 16.488127 0v26.936392a8.244063 8.244063 0 1 1-16.488127 0z m-377.335117 0a8.244063 8.244063 0 0 1 16.488127 0v26.936392a8.244063 8.244063 0 0 1-16.488127 0z m71.454334 315.04471a6.942369 6.942369 0 0 1-6.942369 6.942369h-63.574745a6.942369 6.942369 0 0 1-6.942369-6.942369v-33.427507a6.942369 6.942369 0 0 1 6.942369-6.942369h63.574745a6.942369 6.942369 0 0 1 6.942369 6.942369z m0-85.200225a6.942369 6.942369 0 0 1-6.942369 6.942369h-63.574745a6.942369 6.942369 0 0 1-6.942369-6.942369V524.895173a6.942369 6.942369 0 0 1 6.942369-6.942369h63.574745a6.942369 6.942369 0 0 1 6.942369 6.942369z m0-85.200225a6.942369 6.942369 0 0 1-6.942369 6.942369h-63.574745a6.942369 6.942369 0 0 1-6.942369-6.942369v-33.427507a6.942369 6.942369 0 0 1 6.942369-6.942369h63.574745a6.942369 6.942369 0 0 1 6.942369 6.942369z m-64.529321-73.450265a6.074573 6.074573 0 0 1 0-12.149146h393.111651a6.074573 6.074573 0 0 1 0 12.149146z m236.821567 243.850715a6.942369 6.942369 0 0 1-6.94237 6.942369h-63.557389a6.942369 6.942369 0 0 1-6.942369-6.942369v-33.427507a6.942369 6.942369 0 0 1 6.942369-6.942369h63.557389a6.942369 6.942369 0 0 1 6.94237 6.942369z m0-85.200225a6.942369 6.942369 0 0 1-6.94237 6.942369h-63.557389a6.942369 6.942369 0 0 1-6.942369-6.942369V524.895173a6.942369 6.942369 0 0 1 6.942369-6.942369h63.557389a6.942369 6.942369 0 0 1 6.94237 6.942369z m0-85.200225a6.942369 6.942369 0 0 1-6.94237 6.942369h-63.557389a6.942369 6.942369 0 0 1-6.942369-6.942369v-33.427507a6.942369 6.942369 0 0 1 6.942369-6.942369h63.557389a6.942369 6.942369 0 0 1 6.94237 6.942369z m195.42769 224.203811a3.471185 3.471185 0 0 1-4.877014 0l-18.81382-18.831176a61.249052 61.249052 0 1 1 4.981149-4.755523l18.709685 18.709685a3.471185 3.471185 0 0 1 0 4.877014z" fill="#FFFFFF" p-id="6075"></path></svg>