<?xml version="1.0" standalone="no"?><!DOCTYPE svg PUBLIC "-//W3C//DTD SVG 1.1//EN" "http://www.w3.org/Graphics/SVG/1.1/DTD/svg11.dtd"><svg t="1526904793776" class="icon" style="" viewBox="0 0 1024 1024" version="1.1" xmlns="http://www.w3.org/2000/svg" p-id="5442" xmlns:xlink="http://www.w3.org/1999/xlink" width="200" height="200"><defs><style type="text/css"></style></defs><path d="M534.33873 688.550666a191.828597 191.828597 0 0 1 84.545389-158.960068c2.79362-10.673062 5.72027-22.57409 9.015309-36.347763 11.849862 13.66111 28.979974 14.326258 44.636528-31.640565 5.188152-15.236999 12.228485-46.284047 12.228484-46.284046 4.33881-23.136907-11.184714-41.894072-34.690011-41.894072h-10.621897C645.889115 236.086501 598.254307 170.891794 476.010393 170.891794s-169.868489 65.184475-163.442139 202.532358h-10.611664c-23.535996 0-39.02882 18.757165-34.690011 41.894072 0 0 7.040333 31.036815 12.228484 46.284046 15.656554 45.966823 32.745733 45.301675 44.636528 31.640565 20.599113 86.141744 27.506416 105.195667 70.01447 136.692969v64.590958c-141.215973 18.173882-245.592997 82.283887-245.592997 158.612144h479.49986c-56.005436-33.584842-93.714194-94.696566-93.714194-164.58824z" fill="#00AEE1" p-id="5443"></path><path d="M726.208258 539.281289a149.228445 149.228445 0 1 0 149.228445 149.269377A149.228445 149.228445 0 0 0 726.208258 539.281289z m104.561219 112.788583L702.170844 780.678738 669.261382 747.728345l0.081865-0.102331-49.446057-49.456289 32.950394-32.950394 49.446056 49.446057L797.819083 619.099013z" fill="#00AEE1" p-id="5444"></path></svg>