<?xml version="1.0" standalone="no"?><!DOCTYPE svg PUBLIC "-//W3C//DTD SVG 1.1//EN" "http://www.w3.org/Graphics/SVG/1.1/DTD/svg11.dtd"><svg t="1535012560203" class="icon" style="" viewBox="0 0 1024 1024" version="1.1" xmlns="http://www.w3.org/2000/svg" p-id="1226" xmlns:xlink="http://www.w3.org/1999/xlink" width="500" height="500"><defs><style type="text/css"></style></defs><path d="M670.4 0c-21.6 0-42.4 8.8-57.6 24L56 578.4c-15.2 15.2-24 36-24 58.4s8.8 42.4 24 58.4L362.4 1000c15.2 15.2 36 24 57.6 24s42.4-8.8 57.6-24L968 512c15.2-15.2 24-36.8 24-58.4V332.8c0-21.6-8-41.6-22.4-56.8l-240-251.2C714.4 9.6 692.8 0 670.4 0z" fill="#EFEFEF" p-id="1227"></path><path d="M723.2 556.8l-266.4 270.4c-16.8 16.8-43.2 16.8-60 0L236.8 664c-16.8-16.8-16.8-44 0-60.8l266.4-270.4c16.8-16.8 43.2-16.8 60 0l160 163.2c16.8 16.8 16.8 44 0 60.8z" fill="#EFC75E" p-id="1228"></path><path d="M692.8 188.8c4.8-5.6 12.8-3.2 18.4 2.4 7.2 7.2 8 15.2 12.8 20 4.8 4.8 12.8 4 17.6-0.8 9.6-9.6-4.8-29.6-12-36.8-16.8-16.8-41.6-20-58.4-2.4-28.8 28.8 21.6 61.6 6.4 76-6.4 6.4-15.2 6.4-23.2-1.6s-10.4-20-16-25.6c-4.8-4.8-12-4-16.8 0.8-11.2 12 6.4 34.4 16 44 16.8 16.8 42.4 20.8 60 3.2 32-32.8-16.8-66.4-4.8-79.2zM784 230.4c-5.6-5.6-12.8-5.6-19.2 0l-70.4 70.4c-6.4 6.4-5.6 13.6 0 19.2s12.8 5.6 19.2 0l70.4-70.4c6.4-6.4 5.6-13.6 0-19.2z m109.6 109.6c-6.4-6.4-15.2-6.4-21.6-3.2l-63.2 34.4 34.4-64c3.2-5.6 2.4-15.2-3.2-21.6-6.4-6.4-16.8-6.4-21.6-2.4l-80 57.6c-0.8 0.8-1.6 1.6-2.4 1.6-5.6 5.6-4.8 12.8 0 17.6 6.4 6.4 11.2 5.6 18.4 0.8l57.6-43.2-36.8 67.2c-2.4 4-4 10.4 2.4 16.8s12.8 4.8 16.8 2.4l66.4-36.8-43.2 57.6c-4.8 6.4-5.6 12 0.8 18.4 4.8 4.8 12 5.6 17.6 0 0.8-0.8 1.6-1.6 1.6-2.4l57.6-80.8c4.8-3.2 4.8-13.6-1.6-20z" fill="#D3D6D8" p-id="1229"></path><path d="M723.2 496L680 452l-10.4-10.4-107.2-108.8c-8-8.8-19.2-12.8-30.4-12.8s-21.6 4-30.4 12.8l-30.4 30.4-21.6 21.6-64.8 65.6-4 4-81.6 84.8-21.6 21.6-41.6 41.6c-16.8 16.8-16.8 44 0 60.8l42.4 43.2 11.2 11.2 54.4 55.2 21.6 21.6 31.2 32c8 8.8 19.2 12.8 30.4 12.8s21.6-4 30.4-12.8l40.8-41.6 21.6-21.6 203.2-206.4c16.8-16.8 16.8-44 0-60.8zM468 402.4l44.8 45.6-64.8 66.4-44.8-45.6 64.8-66.4z m-87.2 88l44.8 45.6-64.8 66.4-44.8-45.6 64.8-66.4zM253.6 620l40.8-41.6 44.8 45.6-54.4 55.2-32-32c-6.4-8-6.4-20 0.8-27.2z m53.6 81.6L556 448l-11.2-11.2-55.2-56.8 30.4-31.2c3.2-3.2 8-5.6 12.8-5.6 4.8 0 9.6 1.6 12.8 5.6l107.2 109.6-292 297.6-53.6-54.4z m302.4-154.4l44.8 45.6-64.8 65.6-44.8-45.6 64.8-65.6zM440 810.4c-3.2 3.2-8 5.6-12.8 5.6-4.8 0-9.6-1.6-12.8-5.6l-32-32 54.4-55.2 44.8 45.6-41.6 41.6z m18.4-109.6l64.8-66.4L568 680l-64.8 65.6-44.8-44.8z m248-160.8l-30.4 30.4-44.8-45.6 43.2-44 31.2 32c8 7.2 8 20 0.8 27.2z" fill="#D7B354" p-id="1230"></path></svg>