<svg xmlns="http://www.w3.org/2000/svg" width="128" height="128" class="icon" p-id="2103" t="1562084460540" version="1.1" viewBox="0 0 1077 1024"><path fill="#111" d="M1022.810644 481.426409h-968.881413a56.625736 56.625736 0 0 0-10.550042 1.07653499l-4.521446 1.50714901a27.774601 27.774601 0 0 0-5.597982 1.722455 35.95626599 35.95626599 0 0 0-4.95206 2.583684 26.69806599 26.69806599 0 0 0-4.30613999 2.15307001 54.90328 54.90328 0 0 0-14.85618201 15.07148899l-2.368376 4.090832a38.53995001 38.53995001 0 0 0-2.58368399 5.167368c0 1.722456 0 3.660219-1.72245601 5.382674a35.74095901 35.74095901 0 0 0-1.291842 4.521447 49.735913 49.735913 0 0 0 0 21.53069799 38.755257 38.755257 0 0 0 1.291842 4.73675301c0 1.722456 1.076535 3.660219 1.72245601 5.38267501s1.722456 3.444912 2.58368399 5.167368l2.368376 4.090832a41.123633 41.123633 0 0 0 6.674517 8.18166499l434.70479399 434.27418a53.826745 53.826745 0 0 0 76.21867101-76.003364L183.759341 589.079899h839.697224a53.826745 53.826745 0 0 0 0-107.65349z" p-id="2104"/><path fill="#00C569" d="M85.522015 384.627176m38.06125601-38.06125601l330.82844199-330.82844198q38.061257-38.061257 76.12251299-2e-8l0 0q38.061257 38.061257 0 76.12251301l-330.82844199 330.828442q-38.061257 38.061257-76.12251299 0l0 0q-38.061257-38.061257 0-76.12251299Z" p-id="2105"/></svg>