<svg xmlns="http://www.w3.org/2000/svg" width="128" height="128" class="icon" p-id="2719" t="1562084527616" version="1.1" viewBox="0 0 1024 1024"><path d="M393.142857 120.685714l-347.428571 365.714286c-5.485714 7.314286-9.142857 16.457143-9.142857 25.6v7.314286c0 1.828571 1.828571 3.657143 1.828571 5.485714 1.828571 5.485714 5.485714 9.142857 9.142857 12.8l345.6 363.885714c14.628571 14.628571 36.571429 16.457143 51.2 1.828572 14.628571-14.628571 16.457143-36.571429 1.828572-51.2L157.257143 548.571429H950.857143c20.114286 0 36.571429-16.457143 36.571428-36.571429s-16.457143-36.571429-36.571428-36.571429H157.257143L448 171.885714c5.485714-7.314286 9.142857-16.457143 9.142857-25.6 0-9.142857-3.657143-20.114286-10.971428-27.428571-14.628571-12.8-38.4-12.8-53.028572 1.828571z" p-id="2720"/></svg>