<?xml version="1.0" standalone="no"?><!DOCTYPE svg PUBLIC "-//W3C//DTD SVG 1.1//EN" "http://www.w3.org/Graphics/SVG/1.1/DTD/svg11.dtd"><svg t="1556804747609" class="icon" style="" viewBox="0 0 1024 1024" version="1.1" xmlns="http://www.w3.org/2000/svg" p-id="2146" xmlns:xlink="http://www.w3.org/1999/xlink" width="200" height="200"><defs><style type="text/css"></style></defs><path d="M512 164.38571167C320.11691284 164.38571167 164.38571167 320.11691284 164.38571167 512s155.73120117 347.61428833 347.61428833 347.61428833 347.61428833-155.73120117 347.61428833-347.61428833S703.88308716 164.38571167 512 164.38571167z m148.43130112 456.41756058c10.77604294 10.77604294 10.77604294 28.50437165 0 39.28041457-5.56182862 5.56182862-12.51411438 7.99512863-19.81401444 7.99512864s-14.25218582-2.7809143-19.81401443-7.99512864L512 551.28041458 403.19672775 660.08368683c-5.56182862 5.56182862-12.51411438 7.99512863-19.81401444 7.99512863s-14.25218582-2.7809143-19.81401443-7.99512864c-10.77604294-10.77604294-10.77604294-28.50437165 0-39.28041457L472.71958542 512 363.56869888 403.19672775c-10.77604294-10.77604294-10.77604294-28.50437165 0-39.28041458s28.50437165-10.77604294 39.28041459 0L512 472.71958542l108.80327225-108.80327225c10.77604294-10.77604294 28.50437165-10.77604294 39.28041458 1e-8s10.77604294 28.50437165 0 39.28041457L551.28041458 512l109.15088654 108.80327225z" fill="#d81e06" p-id="2147"></path></svg>