<?xml version="1.0" standalone="no"?><!DOCTYPE svg PUBLIC "-//W3C//DTD SVG 1.1//EN" "http://www.w3.org/Graphics/SVG/1.1/DTD/svg11.dtd">
<svg t="1562083839787" class="icon" viewBox="0 0 1024 1024" version="1.1" 
  xmlns="http://www.w3.org/2000/svg" p-id="890" width="128" height="128">
  <path d="M511.82421875 413.03515625c54.93164063 0 99.4921875 44.47265625 99.4921875 99.31640625 0 54.93164063-44.56054688 99.40429688-99.4921875 99.40429688-55.01953125 0-99.4921875-44.47265625-99.4921875-99.40429688-0.08789063-54.84375 44.47265625-99.31640625 99.4921875-99.31640625z m0 282.21679688c101.07421875 0 183.07617188-81.9140625 183.07617188-182.81250001 0-100.98632813-82.00195313-182.8125-183.07617188-182.81249999-101.16210938 0-183.1640625 81.9140625-183.1640625 182.81249999s82.00195313 182.8125 183.1640625 182.81250001z m439.71679688-217.26562501c6.6796875 9.75585938 10.45898438 21.70898438 10.45898437 34.36523438 0 10.28320313-2.4609375 19.95117188-7.03125 28.56445313-2.63671875 4.13085938-5.44921875 8.17382813-8.34960938 12.12890625C855.56445313 681.62890625 708.69921875 767.9375 541.26757813 777.078125c-9.75585938 0.52734375-19.59960938 0.79101563-29.53125001 0.79101563s-19.77539063-0.26367188-29.53124999-0.79101563C313.3671875 767.84960938 165.359375 679.95898438 74.48046875 549.52929688c-0.96679688-1.40625-2.02148438-2.90039063-3.07617188-4.30664063C65.42773437 535.64257813 62 524.39257813 62 512.43945313c0-12.74414063 3.8671875-24.609375 10.45898438-34.36523438l-0.26367188-0.26367188c94.48242188-137.90039063 252.421875-228.95507813 431.80664063-231.50390624 2.63671875-0.08789063 5.2734375-0.17578125 7.82226562-0.17578126 2.63671875 0 5.2734375 0.08789063 7.82226562 0.17578125 179.47265625 2.4609375 337.41210938 93.69140625 431.89453126 231.67968751z" fill="#707070" p-id="891"></path>
</svg>