<?xml version="1.0" standalone="no"?><!DOCTYPE svg PUBLIC "-//W3C//DTD SVG 1.1//EN" "http://www.w3.org/Graphics/SVG/1.1/DTD/svg11.dtd">
<svg t="1562083906773" class="icon" viewBox="0 0 1024 1024" version="1.1" 
  xmlns="http://www.w3.org/2000/svg" p-id="890" width="128" height="128">
  <path d="M334.68053333 158.20977778c25.40053333-30.96213333 56.73493333-51.10613333 85.85813334-64.18133333 14.01493333-6.2912 28.68906667-10.7648 43.296-13.74933334 16.13013333-3.296 32.27306667-4.7648 47.37813333-4.85653333h1.57333333c15.104 0.09173333 31.24586667 1.56053333 47.37813334 4.85653333 14.60693333 2.98453333 29.28106667 7.45813333 43.296 13.74933334 29.12426667 13.0752 60.45866667 33.2192 85.856 64.18133333 20.18133333 24.6016 36.48 55.792 44.76373333 95.31093333 5.8816 28.05333333 7.75893333 59.6736 5.0816 90.61653334-2.53866667 29.36853333-9.184 58.4864-20.39893333 83.87946666-6.11306667 13.83893333-14.5728 29.9808-26.27413334 48.05013334-9.36746667 14.46186667-20.72533333 30.00213333-34.4928 46.34026666-2.43413333 4.30293333-10.85866667 21.75466667 6.06933334 31.86133334 19.45813333 11.62133333 66.76266667 40.14826667 110.73813333 67.03786666 28.80853333 17.61493333 57.41866667 35.29066667 77.94026667 48.36266667 14.94506667 9.52106667 32.90026667 21.50826667 47.92 36.8768 16.74026667 17.1264 29.55946667 38.04906667 31.12853333 63.81333333 0.46186667 7.57013333 0.67306667 16.50453333 0.70933333 25.84533334a711.53493333 711.53493333 0 0 1-0.50986666 29.41973333c-0.78933333 20.592-5.056 38.6208-15.54026667 52.53546667-11.48266667 15.24266667-28.80533333 24.34133333-54.5632 24.90986666h-0.432c-101.16906667-0.36693333-217.32693333-0.5504-349.45813333-0.5504s-248.288 0.18346667-349.45706667 0.5504h-0.43093333c-25.75786667-0.56853333-43.08053333-9.6672-54.56213334-24.90986666-10.4832-13.91466667-14.752-31.94346667-15.54133333-52.53546667a711.58933333 711.58933333 0 0 1-0.5088-29.42186667c0.03413333-9.33866667 0.24853333-18.272 0.70826667-25.8432 1.57013333-25.76426667 14.38933333-46.6848 31.1296-63.81333333 15.0208-15.36853333 32.97386667-27.3568 47.92-36.87786667 20.51946667-13.06986667 49.12746667-30.74346667 77.9328-48.3584 43.9776-26.89066667 91.28533333-55.41866667 110.7456-67.04 16.92693333-10.1088 8.5024-27.55946667 6.06933333-31.86133333-13.7664-16.3392-25.12533333-31.87946667-34.4928-46.34133333-11.7024-18.06933333-20.1632-34.2112-26.27413333-48.05013334-11.216-25.39306667-17.86026667-54.51093333-20.4-83.87946666-2.67733333-30.94293333-0.79786667-62.5632 5.0816-90.61653334 8.28586667-39.51893333 24.58133333-70.7104 44.76266666-95.31093333" fill="#707070" p-id="891"></path>
</svg>