<svg xmlns="http://www.w3.org/2000/svg" xmlns:xlink="http://www.w3.org/1999/xlink" width="84" height="84" class="icon" p-id="7722" t="1565525160887" version="1.1" viewBox="0 0 1024 1024"><defs><style type="text/css"/></defs><path fill="#1296db" d="M715.776 938.645333 513.152 938.645333 513.152 852.970667 715.776 852.970667C761.514667 852.970667 798.741333 786.197333 798.741333 739.754667L710.634667 739.754667 710.634667 484.096 798.741333 484.096 798.741333 464.256C798.741333 301.653333 668.458667 169.344 508.352 169.344 348.245333 169.344 217.941333 301.653333 217.941333 464.256L217.941333 483.968 299.008 483.968 299.008 739.072 217.941333 739.072 176.469333 739.072 127.786667 739.072 127.786667 464.256C127.786667 255.168 302.464 85.077333 508.352 85.077333 714.24 85.077333 895.957333 255.168 895.957333 464.256L895.957333 741.376C895.957333 834.325333 807.296 938.645333 715.776 938.645333Z" p-id="7723"/></svg>