<svg xmlns="http://www.w3.org/2000/svg" xmlns:xlink="http://www.w3.org/1999/xlink" width="84" height="84" class="icon" p-id="11785" t="1565528015432" version="1.1" viewBox="0 0 1024 1024"><defs><style type="text/css"/></defs><path fill="#E69329" d="M249.6 460.8l108.8 211.2 202.666667-83.2 93.866666-270.933333-315.733333 17.066666z" p-id="11786"/><path fill="#546E7A" d="M320 768m-166.4 0a166.4 166.4 0 1 0 332.8 0 166.4 166.4 0 1 0-332.8 0Z" p-id="11787"/><path fill="#90A4AE" d="M320 576c-106.666667 0-192 85.333333-192 192s85.333333 192 192 192 192-85.333333 192-192-85.333333-192-192-192z m0 341.333333c-83.2 0-149.333333-66.133333-149.333333-149.333333s66.133333-149.333333 149.333333-149.333333 149.333333 66.133333 149.333333 149.333333-66.133333 149.333333-149.333333 149.333333z" p-id="11788"/><path fill="#90A4AE" d="M298.666667 704h42.666666v170.666667h-42.666666z" p-id="11789"/><path fill="#FFB74D" d="M275.2 768c21.333333 40.533333 68.266667 57.6 108.8 36.266667l352-181.333334c21.333333-10.666667 36.266667-25.6 46.933333-40.533333 36.266667-68.266667 119.466667-228.266667 174.933334-366.933333l-388.266667 185.6-102.4 153.6-145.066667 76.8c-55.466667 27.733333-72.533333 89.6-46.933333 136.533333z" p-id="11790"/><path fill="#FFB74D" d="M644.266667 64L292.266667 198.4c-14.933333 4.266667-32 21.333333-46.933334 36.266667l-119.466666 160c-21.333333 32-25.6 72.533333-10.666667 108.8 8.533333 21.333333 36.266667 72.533333 66.133333 130.133333C215.466667 597.333333 264.533333 576 320 576c8.533333 0 19.2 0 27.733333 2.133333l-44.8-89.6 98.133334-87.466666h170.666666s330.666667-46.933333 388.266667-185.6L644.266667 64z" p-id="11791"/><path fill="#FFCDD2" d="M388.266667 768c-27.733333 12.8-59.733333 0-70.4-27.733333-12.8-27.733333 0-59.733333 27.733333-70.4 25.6-12.8 68.266667 85.333333 42.666667 98.133333z" p-id="11792"/></svg>