<?xml version="1.0" standalone="no"?><!DOCTYPE svg PUBLIC "-//W3C//DTD SVG 1.1//EN" "http://www.w3.org/Graphics/SVG/1.1/DTD/svg11.dtd"><svg t="1534938878638" class="icon" style="" viewBox="0 0 1024 1024" version="1.1" xmlns="http://www.w3.org/2000/svg" p-id="2602" xmlns:xlink="http://www.w3.org/1999/xlink" width="500" height="500"><defs><style type="text/css"></style></defs><path d="M575.7 134.3C721.9 163.9 832 293.1 832 448v304h96v80H96v-80h96V448c0-154.9 110.1-284.1 256.3-313.7-0.2-2.1-0.3-4.2-0.3-6.3 0-35.3 28.7-64 64-64s64 28.7 64 64c0 2.1-0.1 4.3-0.3 6.3z" fill="#FB7171" p-id="2603"></path><path d="M512 992c-53 0-96-43-96-96h192c0 53-43 96-96 96z" fill="#FDB1B1" p-id="2604"></path></svg>