<?xml version="1.0" standalone="no"?><!DOCTYPE svg PUBLIC "-//W3C//DTD SVG 1.1//EN" "http://www.w3.org/Graphics/SVG/1.1/DTD/svg11.dtd"><svg t="1535096475094" class="icon" style="" viewBox="0 0 1024 1024" version="1.1" xmlns="http://www.w3.org/2000/svg" p-id="12387" xmlns:xlink="http://www.w3.org/1999/xlink" width="500" height="500"><defs><style type="text/css"></style></defs><path d="M903.693125 122.7378125l-2.1834375-17.668125-17.5425-3.024375c-1.0621875-0.18375001-26.4365625-4.485-64.006875-4.485-43.7240625 0-108.7640625 5.9625-170.308125 34.3678125-47.146875 21.759375-88.7475 72.755625-123.64593749 151.57125-5.6146875 12.6815625-10.5815625 25.0359375-14.91843751 36.6-7.1765625-23.720625-16.3453125-45.703125-27.4078125-65.6409375-20.7609375-37.41374999-48.1959375-67.6565625-81.54374999-89.8884375-81.519375-54.3459375-160.3809375-65.754375-212.1825-65.754375-37.951875 0-62.3165625 6.17624999-63.33562501 6.4396875l-16.325625 4.213125-1.561875 16.78781251c-0.17624999 1.888125-4.1859375 46.880625 5.75812501 103.92468749 5.8884375 33.7809375 15.481875 64.9396875 28.515 92.61281251 16.614375 35.2753125 38.865 64.9396875 66.135 88.17 39.1678125 33.365625 80.65874999 57.913125 123.31687499 72.96281249 33.68625001 11.8846875 68.22374999 17.91 102.6515625 17.91 0.0028125 0-0.0009375 0 0.0009375 0 21.556875 0 39.97124999-2.4028125 53.8471875-4.9715625l0 62.8096875L256.754375 559.6746875l0 284.90156249c0 44.0821875 35.863125 79.94625001 79.94625 79.94625001l364.4840625 0c44.0821875 0 79.9453125-35.8640625 79.9453125-79.94624999L781.13 559.6728125 536.920625 559.6728125 536.920625 426.921875c32.1140625 5.18625001 62.465625 7.8159375 90.5371875 7.8159375 92.0803125 0 163.19624999-27.6328125 211.37343751-82.1296875C919.731875 261.095 904.3859375 128.345 903.693125 122.7378125z" fill="#76f13f" p-id="12388"></path></svg>