<?xml version="1.0" standalone="no"?><!DOCTYPE svg PUBLIC "-//W3C//DTD SVG 1.1//EN" "http://www.w3.org/Graphics/SVG/1.1/DTD/svg11.dtd"><svg t="1532837767225" class="icon" style="" viewBox="0 0 1024 1024" version="1.1" xmlns="http://www.w3.org/2000/svg" p-id="1381" xmlns:xlink="http://www.w3.org/1999/xlink" width="200" height="200"><defs><style type="text/css"></style></defs><path d="M553.984 949.248c-233.472 0-422.912-189.44-422.912-422.912s189.44-422.912 422.912-422.912h1.024l7.168 1.024c1.024 0 2.048 0 3.072 1.024 10.24 4.096 206.848 89.088 206.848 417.792 0 106.496-21.504 256-125.952 359.424L604.16 925.696l57.344-16.384c81.92-23.552 155.648-72.704 207.872-141.312 54.272-69.632 82.944-153.6 82.944-242.688 0-7.168 5.12-12.288 12.288-12.288s12.288 5.12 12.288 12.288c-1.024 234.496-190.464 423.936-422.912 423.936zM218.112 740.352c53.248 82.944 133.12 142.336 227.328 168.96l57.344 16.384-41.984-41.984c-41.984-41.984-73.728-94.208-95.232-156.672l-4.096-10.24-4.096-16.384c-13.312-47.104-20.48-98.304-22.528-153.6v-27.648c0-55.296 6.144-107.52 17.408-153.6l4.096-17.408 3.072-10.24c19.456-66.56 51.2-122.88 94.208-166.912l40.96-43.008-56.32 17.408c-96.256 29.696-177.152 91.136-228.352 179.2l-10.24 13.312v1.024l-4.096 9.216h1.024l-2.048 6.144c-24.576 51.2-37.888 107.52-38.912 164.864v15.36-1.024l1.024 14.336c3.072 58.368 18.432 114.688 46.08 165.888l2.048 4.096h-1.024l7.168 10.24 7.168 12.288z m177.152-2.048c34.816 87.04 86.016 136.192 122.88 161.792l24.576 17.408V130.048l-24.576 17.408c-32.768 22.528-94.208 75.776-129.024 181.248l-8.192 19.456-2.048 9.216c-13.312 48.128-19.456 103.424-20.48 161.792V532.48h1.024v13.312c2.048 58.368 10.24 113.664 25.6 162.816l2.048 8.192h-1.024l9.216 21.504zM563.2 916.48l26.624-17.408c35.84-25.6 87.04-74.752 120.832-160.768l9.216-21.504h-1.024l2.048-8.192c15.36-48.128 23.552-102.4 25.6-160.768v-28.672c0-57.344-7.168-112.64-20.48-161.792l-1.024-9.216-7.168-19.456c-33.792-98.304-89.088-151.552-129.024-180.224L563.2 132.096v784.384z m391.168-471.04c-10.24 0-19.456-8.192-19.456-19.456 0-10.24 8.192-19.456 19.456-19.456 10.24 0 19.456 8.192 19.456 19.456 0 11.264-9.216 19.456-19.456 19.456z m-34.816-98.304c-8.192 0-14.336-6.144-14.336-14.336 0-8.192 6.144-14.336 14.336-14.336s14.336 6.144 14.336 14.336c0 8.192-7.168 14.336-14.336 14.336z m-57.344-90.112c-3.072 0-6.144-3.072-6.144-6.144s3.072-6.144 6.144-6.144 6.144 3.072 6.144 6.144-3.072 6.144-6.144 6.144z" fill="#DDDDDD" p-id="1382"></path><path d="M737.28 533.504c3.072 140.288-47.104 314.368-205.824 403.456-283.648-26.624-430.08-226.304-405.504-444.416 30.72-263.168 235.52-381.952 405.504-374.784 82.944 4.096 217.088 200.704 205.824 415.744z" fill="#FDF1C4" p-id="1383"></path><path d="M737.28 533.504c3.072 140.288-47.104 314.368-205.824 403.456-263.168-73.728-367.616-256-359.424-432.128 30.72-263.168 220.16-388.096 359.424-387.072 82.944 1.024 217.088 200.704 205.824 415.744z" fill="#FCE38A" p-id="1384"></path><path d="M737.28 535.552C740.352 675.84 690.176 849.92 531.456 939.008c-121.856-74.752-215.04-236.544-206.848-412.672-1.024-250.88 123.904-385.024 206.848-406.528C611.328 98.304 748.544 320.512 737.28 535.552z" fill="#BFEDE4" p-id="1385"></path><path d="M737.28 535.552C740.352 675.84 690.176 849.92 531.456 939.008c-63.488-55.296-171.008-257.024-161.792-433.152 30.72-263.168 95.232-330.752 161.792-386.048 82.944 0 217.088 200.704 205.824 415.744z" fill="#95E1D3" p-id="1386"></path><path d="M531.456 951.296c-233.472 0-422.912-189.44-422.912-422.912s189.44-422.912 422.912-422.912h1.024l7.168 1.024c1.024 0 2.048 0 3.072 1.024 10.24 4.096 206.848 89.088 206.848 417.792 0 106.496-21.504 256-125.952 359.424l-41.984 41.984 57.344-16.384c81.92-23.552 155.648-72.704 207.872-141.312 54.272-69.632 82.944-153.6 82.944-242.688 0-7.168 5.12-12.288 12.288-12.288s12.288 5.12 12.288 12.288c0 235.52-189.44 424.96-422.912 424.96zM195.584 742.4c53.248 82.944 133.12 142.336 227.328 168.96l57.344 16.384-41.984-43.008c-41.984-41.984-73.728-95.232-95.232-157.696l-3.072-10.24-4.096-15.36c-13.312-47.104-20.48-98.304-22.528-152.576V522.24c0-55.296 6.144-108.544 17.408-154.624l4.096-18.432 3.072-9.216c19.456-66.56 51.2-121.856 94.208-166.912l40.96-41.984-56.32 17.408c-96.256 29.696-177.152 95.232-228.352 183.296l-10.24 16.384v-4.096l-4.096 4.096h1.024l-2.048 7.168c-24.576 51.2-37.888 106.496-38.912 163.84V542.72l1.024 10.24c3.072 58.368 18.432 111.616 46.08 162.816l2.048 1.024h-1.024l7.168 11.264v1.024l6.144 13.312z m178.176-3.072c34.816 88.064 86.016 137.216 122.88 162.816l25.6 17.408V133.12l-25.6 17.408c-32.768 22.528-94.208 74.752-130.048 180.224l-7.168 17.408-2.048 10.24c-13.312 48.128-19.456 103.424-20.48 160.768V532.48l1.024 3.072V552.96c2.048 58.368 10.24 110.592 25.6 158.72l2.048 5.12h-1.024l9.216 22.528zM542.72 918.528l25.6-17.408c35.84-25.6 87.04-75.776 120.832-161.792l9.216-22.528h-1.024l2.048-6.144c15.36-48.128 23.552-102.4 25.6-161.792v-28.672c0-57.344-7.168-113.664-20.48-161.792l-2.048-10.24-6.144-18.432c-33.792-98.304-88.064-151.552-128-179.2L542.72 134.144v784.384z" fill="#4FB6BE" p-id="1387"></path><path d="M709.632 361.472H274.432c-6.144 0-11.264-5.12-11.264-11.264 0-6.144 5.12-11.264 11.264-11.264h435.2c6.144 0 11.264 5.12 11.264 11.264 0 6.144-5.12 11.264-11.264 11.264zM714.752 695.296H278.528c-6.144 0-11.264-5.12-11.264-11.264 0-6.144 5.12-11.264 11.264-11.264h435.2c6.144 0 11.264 5.12 11.264 11.264 1.024 6.144-4.096 11.264-10.24 11.264zM722.944 535.552H184.32c-6.144 0-11.264-5.12-11.264-11.264 0-6.144 5.12-11.264 11.264-11.264h538.624c6.144 0 11.264 5.12 11.264 11.264 0 6.144-5.12 11.264-11.264 11.264z" fill="#BFEDE4" p-id="1388"></path><path d="M709.632 351.232H274.432c-6.144 0-11.264-5.12-11.264-11.264 0-6.144 5.12-11.264 11.264-11.264h435.2c6.144 0 11.264 5.12 11.264 11.264 0 5.12-5.12 11.264-11.264 11.264zM714.752 685.056H278.528c-6.144 0-11.264-5.12-11.264-11.264 0-6.144 5.12-11.264 11.264-11.264h435.2c6.144 0 11.264 5.12 11.264 11.264 1.024 5.12-4.096 11.264-10.24 11.264zM722.944 524.288H184.32c-6.144 0-11.264-5.12-11.264-11.264 0-6.144 5.12-11.264 11.264-11.264h538.624c6.144 0 11.264 5.12 11.264 11.264 0 6.144-5.12 11.264-11.264 11.264z" fill="#4FB6BE" p-id="1389"></path><path d="M943.104 448.512c-10.24 0-19.456-8.192-19.456-19.456 0-10.24 8.192-19.456 19.456-19.456 10.24 0 19.456 8.192 19.456 19.456 0 10.24-8.192 19.456-19.456 19.456z" fill="#F38181" p-id="1390"></path><path d="M908.288 335.872m-14.336 0a14.336 14.336 0 1 0 28.672 0 14.336 14.336 0 1 0-28.672 0Z" fill="#F38181" p-id="1391"></path><path d="M850.944 259.072c-3.072 0-6.144-3.072-6.144-6.144s3.072-6.144 6.144-6.144 6.144 3.072 6.144 6.144c1.024 3.072-2.048 6.144-6.144 6.144z" fill="#F38181" p-id="1392"></path></svg>