<?xml version="1.0" standalone="no"?><!DOCTYPE svg PUBLIC "-//W3C//DTD SVG 1.1//EN" "http://www.w3.org/Graphics/SVG/1.1/DTD/svg11.dtd"><svg t="1532850844103" class="icon" style="" viewBox="0 0 1024 1024" version="1.1" xmlns="http://www.w3.org/2000/svg" p-id="4488" xmlns:xlink="http://www.w3.org/1999/xlink" width="200" height="200"><defs><style type="text/css"></style></defs><path d="M960.071 839.727c0 66-54 120-120 120H184.212c-66 0-120-54-120-120V183.868c0-66 54-120 120-120h655.859c66 0 120 54 120 120v655.859z" fill="#27A244" p-id="4489"></path><path d="M566.177 450.985c9.135 4.493 18.532 8.371 27.164 13.517 42.452 25.132 68.759 61.991 78.137 110.521 1.995 10.441 2.722 21.217 2.759 31.825 0.242 66.783 0.112 133.565 0.112 200.348v4.531c-108.228 18.178-216.065 18.141-324.051 0.037-0.075-1.249-0.168-2.051-0.168-2.89 0-69.001-0.41-137.984 0.186-207.004 0.559-66.018 41.669-124.299 103.232-148.294 1.622-0.615 3.244-1.286 5.5-2.219-34.398-16.295-58.43-41.427-71.22-76.72-10.03-27.649-10.31-55.764-1.678-83.767 16.891-54.888 68.032-92.306 125.921-92.623 57.517-0.317 109.776 38.034 126.35 93.071 9.62 31.937 7.868 63.371-6.022 93.761-13.813 30.24-36.354 51.997-66.222 65.906zM704.982 759.58v-5.649c0-48.586-0.019-97.21 0-145.759 0.019-27.388-4.754-53.788-15.605-78.995-0.392-0.895-0.727-1.808-1.137-2.722-4.158-9.042-4.251-9.136 3.169-15.53 8.334-7.215 17.768-12.808 27.817-17.264 2.647-1.156 5.351-2.181 8.912-3.636-24.069-11.503-41.166-28.712-50.674-52.837-9.546-24.181-9.191-48.549 0.653-72.562 16.09-39.208 56.547-62.905 99.298-58.579 40.998 4.176 75.583 35.535 83.861 76.645 8.558 42.396-11.82 86.62-55.317 107.184 1.753 0.764 2.983 1.342 4.269 1.92 42.713 18.476 67.734 50.525 73.942 96.818 0.671 4.978 0.802 9.974 0.82 14.971 0.056 48.195 0.037 96.352 0.037 144.528v4.325c-59.699 10.106-119.359 12.604-180.045 7.142zM218.318 490.081c-53.098-25.02-64.713-81.045-52.371-117.867 13.741-41.035 51.178-67.1 92.418-66.634 46.703 0.522 82.22 32.534 92.418 72.078 11.149 43.105-8.502 91.038-54.105 112.33 1.883 0.839 3.3 1.529 4.773 2.107 13.424 5.314 25.393 12.939 36.113 22.615 2.144 1.939 2.908 3.375 1.473 6.246-13.573 27.313-19.483 56.417-19.464 86.844 0.037 48.717 0 97.471 0 146.187v5.575c-60.556 5.5-120.328 2.983-180.138-7.141v-4.307c0-48.344-0.485-96.669 0.131-144.938 0.671-50.525 24.461-86.918 69.766-109.254 2.815-1.417 5.779-2.48 8.986-3.841z" fill="#FFFFFF" p-id="4490"></path></svg>