<?xml version="1.0" standalone="no"?><!DOCTYPE svg PUBLIC "-//W3C//DTD SVG 1.1//EN" "http://www.w3.org/Graphics/SVG/1.1/DTD/svg11.dtd"><svg t="1529125154748" class="icon" style="" viewBox="0 0 1024 1024" version="1.1" xmlns="http://www.w3.org/2000/svg" p-id="1827" xmlns:xlink="http://www.w3.org/1999/xlink" width="200" height="200"><defs><style type="text/css"></style></defs><path d="M915.512902 356.771224v-46.60959c0-51.360656-41.694695-93.055351-93.05535-93.055351h-620.915104c-51.360656 0-93.055351 41.694695-93.05535 93.055351v46.60959h807.025804z" fill="#0FA1ED" p-id="1828"></path><path d="M108.487098 434.427593v279.411797c0 51.360656 41.61278 93.055351 93.05535 93.055351h620.915104c51.360656 0 93.055351-41.694695 93.05535-93.055351v-279.411797h-807.025804z m729.452374 264.010768c0 8.519152-6.880853 15.31809-15.318091 15.31809h-93.464925c-8.519152 0-15.31809-6.880853-15.31809-15.31809v-62.41917c0-8.519152 6.880853-15.31809 15.31809-15.31809h93.464925c8.519152 0 15.31809 6.880853 15.318091 15.31809v62.41917z" fill="#4EB7EE" p-id="1829"></path></svg>