<?xml version="1.0" standalone="no"?><!DOCTYPE svg PUBLIC "-//W3C//DTD SVG 1.1//EN" "http://www.w3.org/Graphics/SVG/1.1/DTD/svg11.dtd"><svg class="icon" width="200px" height="200.00px" viewBox="0 0 1024 1024" version="1.1" xmlns="http://www.w3.org/2000/svg"><path d="M440.630303 406.49697h-12.412121c-9.309091 0-17.066667 6.206061-17.066667 17.066666v12.412122c0 7.757576 6.206061 17.066667 17.066667 17.066666h12.412121c9.309091 0 17.066667-6.206061 17.066667-17.066666v-12.412122c0-10.860606-6.206061-17.066667-17.066667-17.066666m0 268.412121h-12.412121c-9.309091 0-17.066667 6.206061-17.066667 17.066667v12.412121c0 7.757576 6.206061 17.066667 17.066667 17.066666h12.412121c9.309091 0 17.066667-6.206061 17.066667-17.066666v-12.412121c0-10.860606-6.206061-17.066667-17.066667-17.066667m0-179.975758h-12.412121c-9.309091 0-17.066667 6.206061-17.066667 17.066667v12.412121c0 9.309091 6.206061 17.066667 17.066667 17.066667h12.412121c9.309091 0 17.066667-6.206061 17.066667-17.066667V512c0-9.309091-6.206061-17.066667-17.066667-17.066667m0 88.436364h-12.412121c-9.309091 0-17.066667 6.206061-17.066667 17.066667v12.412121c0 9.309091 6.206061 17.066667 17.066667 17.066667h12.412121c9.309091 0 17.066667-6.206061 17.066667-17.066667v-12.412121c0-9.309091-6.206061-17.066667-17.066667-17.066667m-102.4-266.860606H325.818182c-9.309091 0-17.066667 6.206061-17.066667 17.066667v12.412121c0 9.309091 7.757576 17.066667 17.066667 17.066666h12.412121c9.309091 0 17.066667-6.206061 17.066667-17.066666v-12.412121c0-10.860606-6.206061-17.066667-17.066667-17.066667m0 266.860606H325.818182c-9.309091 0-17.066667 6.206061-17.066667 17.066667v12.412121c0 9.309091 7.757576 17.066667 17.066667 17.066667h12.412121c9.309091 0 17.066667-6.206061 17.066667-17.066667v-12.412121c0-9.309091-6.206061-17.066667-17.066667-17.066667m0-176.872727H325.818182c-9.309091 0-17.066667 6.206061-17.066667 17.066666v12.412122c0 7.757576 7.757576 17.066667 17.066667 17.066666h12.412121c9.309091 0 17.066667-6.206061 17.066667-17.066666v-12.412122c0-10.860606-6.206061-17.066667-17.066667-17.066666m0 268.412121H325.818182c-9.309091 0-17.066667 6.206061-17.066667 17.066667v12.412121c0 7.757576 7.757576 17.066667 17.066667 17.066666h12.412121c9.309091 0 17.066667-6.206061 17.066667-17.066666v-12.412121c0-10.860606-6.206061-17.066667-17.066667-17.066667m0-179.975758H325.818182c-9.309091 0-17.066667 6.206061-17.066667 17.066667v12.412121c0 9.309091 7.757576 17.066667 17.066667 17.066667h12.412121c9.309091 0 17.066667-6.206061 17.066667-17.066667V512c0-9.309091-6.206061-17.066667-17.066667-17.066667m279.272727 0H605.090909c-9.309091 0-17.066667 6.206061-17.066667 17.066667v12.412121c0 9.309091 7.757576 17.066667 17.066667 17.066667h12.412121c9.309091 0 17.066667-6.206061 17.066667-17.066667V512c0-9.309091-6.206061-17.066667-17.066667-17.066667m85.333334 0h-12.412122c-9.309091 0-17.066667 6.206061-17.066666 17.066667v12.412121c0 9.309091 6.206061 17.066667 17.066666 17.066667h12.412122c9.309091 0 17.066667-6.206061 17.066666-17.066667V512c0-9.309091-6.206061-17.066667-17.066666-17.066667M440.630303 316.509091h-12.412121c-9.309091 0-17.066667 6.206061-17.066667 17.066667v12.412121c0 9.309091 6.206061 17.066667 17.066667 17.066666h12.412121c9.309091 0 17.066667-6.206061 17.066667-17.066666v-12.412121c0-10.860606-6.206061-17.066667-17.066667-17.066667m262.206061 266.860606h-12.412122c-9.309091 0-17.066667 6.206061-17.066666 17.066667v12.412121c0 9.309091 6.206061 17.066667 17.066666 17.066667h12.412122c9.309091 0 17.066667-6.206061 17.066666-17.066667v-12.412121c0-9.309091-6.206061-17.066667-17.066666-17.066667" fill="#33cccc" /><path d="M795.927273 440.630303V775.757576c0 12.412121-9.309091 21.721212-21.721212 21.721212h-512c-18.618182 0-34.133333-15.515152-34.133334-34.133333V260.654545c0-18.618182 15.515152-34.133333 34.133334-34.133333h251.345454c18.618182 0 34.133333 15.515152 34.133333 34.133333v156.703031h229.624243c9.309091 1.551515 20.169697 10.860606 18.618182 23.272727M512 0C229.624242 0 0 229.624242 0 512s229.624242 512 512 512 512-229.624242 512-512S794.375758 0 512 0" fill="#33cccc" /><path d="M702.836364 674.909091h-12.412122c-9.309091 0-17.066667 6.206061-17.066666 17.066667v12.412121c0 7.757576 6.206061 17.066667 17.066666 17.066666h12.412122c9.309091 0 17.066667-6.206061 17.066666-17.066666v-12.412121c0-10.860606-6.206061-17.066667-17.066666-17.066667m-85.333334 0H605.090909c-9.309091 0-17.066667 6.206061-17.066667 17.066667v12.412121c0 7.757576 7.757576 17.066667 17.066667 17.066666h12.412121c9.309091 0 17.066667-6.206061 17.066667-17.066666v-12.412121c0-10.860606-6.206061-17.066667-17.066667-17.066667m0-91.539394H605.090909c-9.309091 0-17.066667 6.206061-17.066667 17.066667v12.412121c0 9.309091 7.757576 17.066667 17.066667 17.066667h12.412121c9.309091 0 17.066667-6.206061 17.066667-17.066667v-12.412121c0-9.309091-6.206061-17.066667-17.066667-17.066667" fill="#33cccc" /></svg>