<?xml version="1.0" standalone="no"?><!DOCTYPE svg PUBLIC "-//W3C//DTD SVG 1.1//EN" "http://www.w3.org/Graphics/SVG/1.1/DTD/svg11.dtd"><svg t="1526904672574" class="icon" style="" viewBox="0 0 1024 1024" version="1.1" xmlns="http://www.w3.org/2000/svg" p-id="3782" xmlns:xlink="http://www.w3.org/1999/xlink" width="200" height="200"><defs><style type="text/css"></style></defs><path d="M364.954132 333.692815c39.396423 0 71.425202-31.824123 71.425202-71.322874 0-39.396423-31.824123-71.425202-71.322874-71.425202h-0.102328c-39.396423 0-71.322874 31.926451-71.322874 71.322874 0 39.498751 31.926451 71.425202 71.322874 71.425202zM653.417808 392.838613c1.534926-13.609673-8.288598-25.786749-21.898272-27.321675-0.409313 0-0.716299-0.102328-1.125612-0.102328l-189.512141-12.177076-31.312482-0.61397c-0.920955 0-1.739582 0.409313-2.251224 1.023283l-37.04287 46.150095c-2.353553 3.172179-6.753672 3.78615-9.925852 1.534926-0.61397-0.409313-1.125612-0.920955-1.534925-1.534926l-37.349855-46.150095c-0.511642-0.716299-1.330269-1.125612-2.251224-1.125612h-21.898272c-33.359049 0-60.373738 27.01469-60.373738 60.373739 0 2.251224 0.102328 4.604777 0.409314 6.856l17.600479 132.105926c2.148896 19.340062 15.04227 35.81493 33.359049 42.568602L317.883082 812.487259c1.432597 11.767763 11.460777 20.568002 23.22854 20.568002H387.875687c11.870091 0 21.898271-8.902568 23.22854-20.772659l13.81433-73.676426 33.154392-309.952633c0.204657-1.534926 1.432597-2.762866 2.967523-2.865195l167.920855-10.744479c12.381733-0.716299 22.716898-9.925852 24.456481-22.205256z" fill="#1296db" p-id="3783"></path><path d="M693.223544 557.177975c0.818627-2.353553 1.432597-4.809433 1.432597-7.367642v-5.730389c0-10.949136-8.288598-19.851704-18.930749-21.079644 20.874988-11.563106 34.791646-28.8566 34.791646-44.205856 0-6.856001-2.865194-12.381733-8.390926-15.860897l-2.046568-1.330269h-148.376136l-2.046568 1.330269c-5.423404 3.479165-8.390926 9.004897-8.390926 15.860897 0 15.349256 13.916658 32.64275 34.791646 44.205856-10.64215 1.22794-18.930748 10.130509-18.930749 21.079644v5.730389c0 2.660538 0.511642 5.116419 1.432597 7.367642-56.48526 29.777556-93.835115 93.937444-93.835115 152.980914 0 76.746278 58.736484 120.747477 161.167183 120.747477s161.167183-44.001199 161.167183-120.747477c0-59.04347-37.349855-123.203358-93.835115-152.980914z m-110.821625-29.879884h83.397621c10.130509 0 18.419107 6.753672 18.419107 15.144599s-8.288598 15.144599-18.419107 15.144599h-83.397621c-10.130509 0-18.419107-6.753672-18.419107-15.144599s8.288598-15.144599 18.419107-15.144599z m116.245028 157.892675v21.795943h-46.45708l-5.935045 7.5723v6.753672h52.494454v20.977316h-52.494454v29.368242H599.695413v-29.368242h-53.620066v-20.977316H599.695413v-6.753672l-5.935045-7.5723h-46.45708l-1.227941-21.795943h38.168482L546.075347 623.179774h48.912961l31.005496 64.569202 32.233437-64.569202h47.68502l-38.168482 62.113321h30.903168z" fill="#1296db" p-id="3784"></path></svg>