<?xml version="1.0" standalone="no"?><!DOCTYPE svg PUBLIC "-//W3C//DTD SVG 1.1//EN" "http://www.w3.org/Graphics/SVG/1.1/DTD/svg11.dtd"><svg t="1535096623918" class="icon" style="" viewBox="0 0 1024 1024" version="1.1" xmlns="http://www.w3.org/2000/svg" p-id="13161" xmlns:xlink="http://www.w3.org/1999/xlink" width="500" height="500"><defs><style type="text/css"></style></defs><path d="M663.8592 781.11232c-22.28736 0-37.13024 18.56512-37.13024 37.13024 0 22.28736 18.56512 37.13024 37.13024 37.13024s37.13024-14.87872 37.13024-37.13024c0-22.28736-18.56512-37.13024-37.13024-37.13024z" fill="#d81e06" p-id="13162"></path><path d="M784.15872 699.74528c5.1712 59.71968-54.27712 79.0784-54.27712 79.0784 27.8784 39.41888 22.7584 76.54912 3.29216 117.17632l105.00608-1.39776v67.59424c0 82.4064 115.87584 82.4064 115.87584 0v-67.59424H1024V463.77472l-26.55744-312.7296c-11.22304-56.43776-61.46048-78.9504-115.61472-101.52448C828.45696 27.27424 700.5696 0.7168 606.09536 0c-94.4128 0.7168-222.3616 27.27424-275.73248 49.5872-54.15424 22.57408-104.3968 45.08672-115.68128 101.52448l-23.86432 282.35776c20.03968-16.32768 46.31552-29.92128 79.36512-39.72608l23.31648-167.14752c4.23936-27.60192 13.63456-45.6704 49.39264-45.6704h526.34624c35.69152 0 45.08672 18.0736 49.39264 45.6704l31.6416 226.86208c2.87232 21.72928-3.39456 43.32544-33.40288 43.32544h-287.55456c22.07232 38.40512 25.1904 46.78656 39.6544 79.10912 12.99968 41.91744 52.096 50.45248 52.096 50.45248s58.96192 25.68192 63.09376 73.40032z m-6.20544-570.0352H434.17088c-33.93024 0-33.93024-50.8928 0-50.8928h343.7824c33.86368 0 33.86368 50.8928 0 50.8928z m186.8032 592.1792c0 12.98432-10.56768 23.55712-23.49056 23.55712h-95.1296a23.53152 23.53152 0 0 1-23.49056-23.55712v-40.25344c0-12.98432 10.50624-23.55712 23.49056-23.55712h95.1296a23.53152 23.53152 0 0 1 23.49056 23.55712v40.25344zM258.26304 954.99264v7.20384c0 82.4064 115.8144 82.4064 115.8144 0v-7.20384h-115.8144z" fill="#d81e06" p-id="13163"></path><path d="M663.16288 654.50496h-9.98912c-3.33824-9.98912-3.33824-9.00608-6.65088-18.9952-3.36896-13.35808-36.67456-86.64576-63.32928-119.97696-36.67456-43.32032-106.6496-72.88832-216.61184-72.88832-113.30048 0-183.27552 29.568-216.61184 72.88832-30.02368 33.33632-60.02176 106.61888-63.32928 119.97696-3.33824 9.98912-6.6816 12.31872-6.6816 18.9952h-9.98912C13.32736 654.50496 0 695.49568 0 722.1504c0 10.01984 9.98912 20.00896 20.00896 23.31648l55.30112 6.65088c-9.98912 50.00192-29.1072 109.99296-29.1072 166.64064v69.97504c0 13.32736 9.98912 34.80576 23.31648 34.80576h54.29248c13.32736 0 23.31648-21.4784 23.31648-34.80576V962.048h449.40288v23.31648c0 13.32736 9.98912 38.63552 23.31648 38.63552h45.71136c13.32736 0 23.31648-25.30816 23.31648-38.63552v-69.97504c0-56.64768-19.11808-116.63872-29.1072-166.64064l53.4016-6.65088c9.98912 0 20.00896-9.98912 20.00896-23.31648-0.03584-23.31648-13.36832-64.27648-70.016-64.27648z m-526.48448 219.0336c-17.1264 0-34.28352-13.72672-34.28352-34.2528 0-17.1264 13.696-34.28352 34.28352-34.28352 17.1264 0 34.28352 13.72672 34.28352 34.28352 0 20.52608-13.72672 34.2528-34.28352 34.2528z m-23.37792-158.55616c23.31648-109.99296 56.64768-152.82176 69.97504-166.1184 20.00896-23.31648 66.6368-46.66368 183.27552-46.66368s163.3024 23.31648 183.30624 46.66368c13.32736 13.32736 46.66368 56.16128 69.97504 166.1184-50.00192 20.00896-136.64768 61.55264-253.2864 61.55264s-203.27424-41.5744-253.24544-61.55264z m482.67264 157.63456c-16.6656 0-33.33632-13.32736-33.33632-33.33632 0-16.6656 13.32736-33.33632 33.33632-33.33632 16.6656 0 33.33632 13.32736 33.33632 33.33632 0 19.97824-16.67072 33.33632-33.33632 33.33632z" fill="#d81e06" p-id="13164"></path></svg>