<?xml version="1.0" standalone="no"?><!DOCTYPE svg PUBLIC "-//W3C//DTD SVG 1.1//EN" "http://www.w3.org/Graphics/SVG/1.1/DTD/svg11.dtd"><svg t="1532992904864" class="icon" style="" viewBox="0 0 1024 1024" version="1.1" xmlns="http://www.w3.org/2000/svg" p-id="2158" xmlns:xlink="http://www.w3.org/1999/xlink" width="200" height="200"><defs><style type="text/css"></style></defs><path d="M858.406003 514.96722a34.666709 34.666709 0 0 1-18.232326-5.170621c-16.360664-10.08527-21.462684-31.547955-11.39482-47.926025 18.878398-30.646936 28.843873-65.902379 28.843873-101.957476 0-107.331851-87.313869-194.663126-194.628313-194.663126-70.78324 0-136.056954 38.589214-170.30899 100.681716-9.285616 16.854176-30.442158 22.975987-47.313741 13.672964-16.870558-9.285616-22.993393-30.476971-13.672964-47.312717 46.531492-84.321052 135.137505-136.703025 231.295695-136.703025 145.715264 0 264.289376 118.573088 264.289375 264.323164 0 48.96322-13.537812 96.855456-39.185115 138.487657-6.596893 10.683219-17.991713 16.567488-29.692674 16.567489z" fill="#F9D162" p-id="2159"></path><path d="M892.488073 689.697346c-10.136465 0-20.170541-4.387349-27.041835-12.856928L731.771866 512.603068l-90.783817 107.36564c-6.870271 8.128626-17.58523 13.128258-27.754459 12.312221a34.71176 34.71176 0 0 1-26.870847-14.148048L371.562865 326.649111 160.369111 669.119299c-10.101653 16.394452-31.530549 21.463708-47.926025 11.394819-16.394452-10.102677-21.462684-31.564337-11.361031-47.927048l238.234566-386.416369a34.886845 34.886845 0 0 1 28.23159-16.513223c11.598573-0.28976 22.619675 4.829667 29.456157 14.13269l219.254803 297.536979 89.423073-105.748924a34.838722 34.838722 0 0 1 26.599516-12.347033h0.33993c10.341242 0.102389 20.136753 4.813285 26.668118 12.840546l160.172524 196.821476c12.142256 14.898555 9.897899 36.83837-5.034444 48.980626a34.55613 34.55613 0 0 1-21.939815 7.823508z m-32.586174 99.628138c0-19.254164-15.578415-34.832579-34.830531-34.832579H198.124882c-19.218328 0-34.830531 15.578415-34.830531 34.832579 0 19.252116 15.613227 34.830531 34.830531 34.830531h626.94751c19.251092 0 34.829507-15.578415 34.829507-34.830531zM755.41133 893.816053c0-19.252116-15.578415-34.830531-34.830531-34.830531H302.616475c-19.218328 0-34.830531 15.578415-34.830531 34.830531s15.613227 34.830531 34.830531 34.830531h417.964324c19.252116 0 34.830531-15.578415 34.830531-34.830531z" fill="#494B51" p-id="2160"></path></svg>