<?xml version="1.0" standalone="no"?><!DOCTYPE svg PUBLIC "-//W3C//DTD SVG 1.1//EN" "http://www.w3.org/Graphics/SVG/1.1/DTD/svg11.dtd"><svg t="1528707397935" class="icon" style="" viewBox="0 0 1116 1024" version="1.1" xmlns="http://www.w3.org/2000/svg" p-id="2527" xmlns:xlink="http://www.w3.org/1999/xlink" width="217.96875" height="200"><defs><style type="text/css"></style></defs><path d="M823.009888 0c64.731115 0 115.591276 50.860162 115.591277 115.591276v351.397481c0 23.118255-18.494604 36.989208-36.989209 36.989208-23.118255 0-36.989208-18.494604-36.989208-36.989208v-346.773829c0-23.118255-18.494604-36.989208-36.989208-36.989209H115.591276c-18.494604-4.623651-36.989208 13.870953-36.989208 36.989209v786.02068c0 23.118255 18.494604 36.989208 36.989208 36.989208h272.795413c23.118255 0 36.989208 18.494604 36.989208 36.989208 0 23.118255-18.494604 36.989208-36.989208 36.989209H115.591276c-64.731115 4.623651-115.591276-46.236511-115.591276-110.967625v-786.02068c0-64.731115 50.860162-115.591276 115.591276-115.591277h707.418612z" fill="#6AC7A8" p-id="2528"></path><path d="M198.816996 492.280128h235.806204c23.118255 0 36.989208 18.494604 36.989208 36.989209 0 23.118255-18.494604 36.989208-36.989208 36.989208H198.816996c-23.118255 0-36.989208-18.494604-36.989209-36.989208-4.623651-18.494604 13.870953-36.989208 36.989209-36.989209M198.816996 247.226622h471.612408c23.118255 0 36.989208 18.494604 36.989208 36.989209 0 23.118255-18.494604 36.989208-36.989208 36.989208H198.816996c-23.118255 4.623651-41.61286-13.870953-41.61286-32.365557 0-23.118255 18.494604-41.61286 41.61286-41.61286" fill="#FFCE41" p-id="2529"></path><path d="M716.665914 1010.129047c-13.870953 0-23.118255-4.623651-32.365557-13.870953l-194.193345-198.816996c-18.494604-18.494604-18.494604-50.860162 0-69.354766 18.494604-18.494604 50.860162-18.494604 69.354766 0l161.827787 161.827787 309.784621-309.784621c18.494604-18.494604 50.860162-18.494604 69.354766 0 18.494604 18.494604 18.494604 50.860162 0 69.354766l-342.150178 346.77383c-13.870953 9.247302-27.741906 13.870953-41.61286 13.870953" fill="#6AC7A8" p-id="2530"></path></svg>