<?xml version="1.0" standalone="no"?><!DOCTYPE svg PUBLIC "-//W3C//DTD SVG 1.1//EN" "http://www.w3.org/Graphics/SVG/1.1/DTD/svg11.dtd"><svg class="icon" width="200px" height="200.00px" viewBox="0 0 1024 1024" version="1.1" xmlns="http://www.w3.org/2000/svg"><path d="M979.5 394.03c0-0.028-0.003-0.055-0.003-0.083a30.7 30.7 0 0 0-0.066-1.852c-0.012-0.194-0.029-0.387-0.045-0.58a30.343 30.343 0 0 0-0.164-1.521c-0.018-0.137-0.033-0.275-0.054-0.412a30.579 30.579 0 0 0-0.876-4.032l-0.008-0.026c-2.534-8.754-8.858-15.954-17.154-19.808L524.476 143.097a33.02 33.02 0 0 0-29.927 0L56.797 366.259c-10.65 5.424-17.297 16.116-17.297 27.802 0 11.675 6.684 22.406 17.297 27.804l141.929 72.269v245.564c0 0.598 0.021 1.191 0.055 1.78 0.557 12.924 7.168 25.473 19.699 37.337 44.844 42.46 182.48 91.867 284.036 91.867 2.65 0 5.302-0.029 7.881-0.091 92.454-2.475 309.908-60.078 309.908-130.893v-245.58l94.658-48.199v332.048c0 17.342 14.432 31.377 32.266 31.377 17.837 0 32.271-14.035 32.271-31.377V394.061v-0.031zM755.769 733.558c-23.547 23.463-148.964 71.622-247.138 74.255-95.144 2.669-222.945-50.401-245.375-73.981v-206.84l231.293 117.772a32.887 32.887 0 0 0 14.964 3.588c5.135 0 10.275-1.192 14.94-3.588l231.316-117.785v206.579zM509.513 581.53L141.316 394.061l368.197-187.727L877.84 394.116 509.513 581.53z" fill="#36ab60" /></svg>