<?xml version="1.0" standalone="no"?><!DOCTYPE svg PUBLIC "-//W3C//DTD SVG 1.1//EN" "http://www.w3.org/Graphics/SVG/1.1/DTD/svg11.dtd"><svg class="icon" width="200px" height="200.00px" viewBox="0 0 1024 1024" version="1.1" xmlns="http://www.w3.org/2000/svg"><path d="M998.902451 386.362269c-13.298701-13.298701-31.696905-24.497608-54.894639-33.496729-43.695733-16.99834-104.589786-25.897471-176.082805-25.89747-71.892979 0-139.986329 8.899131-191.781271 25.097549-24.797578 7.699248-45.195586 16.99834-60.794063 27.497314-12.398789-10.298994-28.297237-19.298115-47.395372-26.697393-43.595743-16.99834-104.489796-25.897471-175.982814-25.89747-71.892979 0-139.986329 8.899131-191.781271 25.097549-27.297334 8.49917-49.395176 18.898154-65.493604 30.796992C5.999414 404.060541 0 427.258276 0 442.956743v556.94561c0 13.298701 10.698955 23.997656 23.997656 23.997657h47.995313c1.699834 0 3.299678-0.599941 4.699541-1.599844 8.199199-6.199395 25.997461-15.898447 59.09423-24.697588C178.982521 986.203691 234.477102 979.904306 291.971487 979.904306c79.192266 0 125.287765 11.398887 149.985353 20.99795 20.298018 7.899229 29.097158 15.698467 32.296846 19.998047 1.499854 1.899814 3.699639 3.099697 6.199395 3.099697H547.94649c1.699834 0 3.299678-0.599941 4.699541-1.599844 8.199199-6.199395 25.997461-15.898447 59.094229-24.697588C654.936041 986.203691 710.430622 979.904306 767.925007 979.904306c79.192266 0 125.287765 11.398887 149.985353 20.99795 14.198613 5.499463 22.797774 10.998926 27.797286 15.298506 5.799434 4.999512 13.198711 7.699248 20.797969 7.699248h33.396738c13.298701 0 23.997656-10.698955 23.997657-23.997657V442.956743c0-20.697979-8.69915-40.196075-24.997559-56.594474zM475.95352 937.008495c-2.599746-1.099893-5.199492-2.199785-7.999219-3.299678-43.595743-16.89835-104.489796-25.797481-175.982814-25.79748-71.892979 0-139.986329 8.899131-191.781271 25.097549-10.199004 3.199688-19.598086 6.599356-28.197247 10.298994V445.656479c4.0996-4.999512 21.497901-17.698272 63.793771-28.897178C178.982521 405.260424 234.477102 398.961039 291.971487 398.961039c79.192266 0 125.287765 11.398887 149.985353 20.997949 27.697295 10.798945 33.99668 21.497901 33.99668 22.997755v494.051752z m475.95352 0c-2.599746-1.099893-5.199492-2.199785-7.999218-3.299678-43.595743-16.89835-104.489796-25.797481-175.982815-25.79748-71.892979 0-139.986329 8.899131-191.781271 25.097549-10.199004 3.199688-19.598086 6.599356-28.197246 10.298994V445.656479c4.0996-4.999512 21.497901-17.698272 63.79377-28.897178C654.936041 405.260424 710.430622 398.961039 767.925007 398.961039c79.192266 0 125.287765 11.398887 149.985353 20.997949 27.697295 10.798945 33.99668 21.497901 33.99668 22.997755v494.051752zM35.996485 315.969144c5.499463 0 11.098916-1.299873 16.398398-3.99961L511.950005 76.49253 971.505126 311.969534c5.299482 2.699736 10.898936 3.999609 16.398399 3.99961 13.098721 0 25.69749-7.099307 32.096866-19.598086 9.099111-17.698272 2.099795-39.396153-15.598477-48.495265L528.348403 3.999609c-0.09999 0-0.09999-0.09999-0.19998-0.09999-0.299971-0.19998-0.699932-0.299971-1.099893-0.499951l-0.599941-0.299971c-0.299971-0.09999-0.599941-0.19998-0.899912-0.399961l-0.899912-0.29997c-0.19998-0.09999-0.399961-0.09999-0.599942-0.199981-0.399961-0.09999-0.799922-0.299971-1.199882-0.399961-0.09999 0-0.09999 0-0.199981-0.09999-3.299678-1.099893-6.699346-1.599844-9.999023-1.699834h-1.599844c-3.399668 0.09999-6.799336 0.599941-10.099014 1.699834h-0.09999c-0.399961 0.09999-0.799922 0.299971-1.199883 0.399961-0.19998 0.09999-0.299971 0.09999-0.499951 0.19998-0.299971 0.09999-0.599941 0.19998-0.899912 0.399961-0.299971 0.09999-0.499951 0.19998-0.799922 0.299971-0.19998 0.09999-0.499951 0.19998-0.699932 0.299971-0.299971 0.19998-0.699932 0.299971-0.999902 0.499951-0.09999 0-0.09999 0.09999-0.199981 0.09999l-475.95352 243.976174C1.899814 256.974905-5.099502 278.672786 3.999609 296.371058c6.299385 12.498779 18.998145 19.598086 31.996876 19.598086z" fill="#04be02" /></svg>